<svg width="17" height="17" viewBox="0 0 17 17" fill="none" xmlns="http://www.w3.org/2000/svg">
<path d="M1.41675 15.5846L1.41675 2.83464C1.41675 2.44505 1.55546 2.11155 1.83289 1.83411C2.11032 1.55668 2.44383 1.41797 2.83341 1.41797L14.1667 1.41797C14.5563 1.41797 14.8898 1.55668 15.1673 1.83411C15.4447 2.11155 15.5834 2.44505 15.5834 2.83464L15.5834 11.3346C15.5834 11.7242 15.4447 12.0577 15.1673 12.3352C14.8898 12.6126 14.5563 12.7513 14.1667 12.7513L4.25008 12.7513L1.41675 15.5846ZM3.648 11.3346L14.1667 11.3346L14.1667 2.83464L2.83341 2.83464L2.83341 12.1315L3.648 11.3346Z" fill="white"/>
</svg>
