<svg width="14" height="18" viewBox="0 0 14 18" fill="none" xmlns="http://www.w3.org/2000/svg">
<path d="M13.1928 7.67136C13.1928 12.413 7.09641 16.4773 7.09641 16.4773C7.09641 16.4773 1 12.413 1 7.67136C1 6.0545 1.6423 4.50385 2.7856 3.36055C3.9289 2.21725 5.47954 1.57495 7.09641 1.57495C8.71328 1.57495 10.2639 2.21725 11.4072 3.36055C12.5505 4.50385 13.1928 6.0545 13.1928 7.67136Z" stroke="#03103B" stroke-width="1.49023" stroke-linecap="round" stroke-linejoin="round"/>
<path d="M7.09427 9.70258C8.21659 9.70258 9.12641 8.79276 9.12641 7.67044C9.12641 6.54812 8.21659 5.63831 7.09427 5.63831C5.97195 5.63831 5.06213 6.54812 5.06213 7.67044C5.06213 8.79276 5.97195 9.70258 7.09427 9.70258Z" stroke="#03103B" stroke-width="1.49023" stroke-linecap="round" stroke-linejoin="round"/>
</svg>
