<svg width="34" height="34" viewBox="0 0 34 34" fill="none" xmlns="http://www.w3.org/2000/svg">
<path d="M27.2 5.09998L6.8 5.09998C6.1237 5.09998 5.4751 5.36864 4.99688 5.84685C4.51866 6.32507 4.25 6.97367 4.25 7.64998L4.25 21.25C4.25 21.9263 4.51866 22.5749 4.99688 23.0531C5.4751 23.5313 6.1237 23.8 6.8 23.8L12.75 23.8L17 28.9L21.25 23.8L27.2 23.8C27.8763 23.8 28.5249 23.5313 29.0031 23.0531C29.4813 22.5749 29.75 21.9263 29.75 21.25L29.75 7.64998C29.75 6.97367 29.4813 6.32507 29.0031 5.84685C28.5249 5.36864 27.8763 5.09998 27.2 5.09998Z" stroke="#DE3B40" stroke-width="2.04" stroke-miterlimit="10" stroke-linecap="square"/>
<path d="M10.2031 11.8999L23.8031 11.8999" stroke="#DE3B40" stroke-width="2.04" stroke-miterlimit="10" stroke-linecap="square"/>
<path d="M10.2031 17L17.8531 17" stroke="#DE3B40" stroke-width="2.04" stroke-miterlimit="10" stroke-linecap="square"/>
</svg>
