<svg width="1222" height="245" viewBox="0 0 1222 245" fill="none" xmlns="http://www.w3.org/2000/svg">
<path d="M114.596 2.70832V36.9177H43.1809V73.8737H96.6174V107.084H43.1809V178H0.481602V2.70832H114.596ZM179.737 61.888C184.731 54.2304 190.974 48.2375 198.465 43.9094C205.956 39.4147 214.28 37.1674 223.435 37.1674V82.3637H211.699C201.045 82.3637 193.055 84.6942 187.728 89.3553C182.401 93.85 179.737 101.841 179.737 113.327V178H137.038V38.6656H179.737V61.888ZM375.189 106.085C375.189 110.081 374.939 114.242 374.44 118.571H277.804C278.47 127.227 281.217 133.886 286.045 138.547C291.039 143.042 297.115 145.289 304.273 145.289C314.927 145.289 322.335 140.794 326.497 131.805H371.943C369.612 140.961 365.367 149.201 359.208 156.526C353.215 163.85 345.64 169.593 336.485 173.755C327.329 177.917 317.091 179.998 305.771 179.998C292.121 179.998 279.968 177.084 269.314 171.258C258.66 165.432 250.337 157.108 244.344 146.288C238.351 135.467 235.355 122.816 235.355 108.333C235.355 93.85 238.268 81.1984 244.094 70.3779C250.087 59.5574 258.411 51.234 269.065 45.4076C279.719 39.5812 291.954 36.668 305.771 36.668C319.255 36.668 331.241 39.4979 341.728 45.1579C352.216 50.8178 360.373 58.8915 366.199 69.3791C372.192 79.8666 375.189 92.1021 375.189 106.085ZM331.491 94.8488C331.491 87.5242 328.994 81.6978 323.999 77.3696C319.005 73.0414 312.763 70.8773 305.272 70.8773C298.114 70.8773 292.037 72.9582 287.043 77.1199C282.216 81.2816 279.219 87.1913 278.054 94.8488H331.491ZM389.225 108.582C389.225 94.7656 392.055 82.4469 397.715 71.6264C403.541 60.8059 411.282 52.3993 420.937 46.4064C430.759 40.247 441.413 37.1674 452.899 37.1674C461.722 37.1674 469.629 38.7488 476.621 41.9117C483.613 44.9082 489.272 49.1531 493.601 54.6466V38.6656H536.3V244.421H493.601V160.521C488.773 166.347 482.863 171.008 475.872 174.504C469.047 178 461.222 179.748 452.4 179.748C441.08 179.748 430.592 176.751 420.937 170.759C411.282 164.766 403.541 156.359 397.715 145.539C392.055 134.718 389.225 122.399 389.225 108.582ZM493.601 108.333C493.601 100.842 492.102 94.5991 489.106 89.6051C486.276 84.4445 482.53 80.6157 477.869 78.1187C473.208 75.4552 468.297 74.1234 463.137 74.1234C458.143 74.1234 453.315 75.4552 448.654 78.1187C443.993 80.6157 440.164 84.4445 437.168 89.6051C434.171 94.7656 432.673 101.091 432.673 108.582C432.673 116.074 434.171 122.399 437.168 127.56C440.164 132.554 443.993 136.383 448.654 139.046C453.315 141.543 458.143 142.792 463.137 142.792C468.131 142.792 472.959 141.543 477.62 139.046C482.447 136.383 486.276 132.471 489.106 127.31C492.102 122.15 493.601 115.824 493.601 108.333ZM704.777 38.6656V178H662.078V159.023C657.75 165.182 651.84 170.176 644.349 174.005C637.025 177.667 628.868 179.498 619.878 179.498C609.224 179.498 599.819 177.168 591.662 172.507C583.505 167.679 577.179 160.77 572.684 151.781C568.19 142.792 565.942 132.221 565.942 120.069V38.6656H608.392V114.326C608.392 123.648 610.806 130.889 615.633 136.05C620.461 141.21 626.953 143.791 635.11 143.791C643.434 143.791 650.009 141.21 654.837 136.05C659.664 130.889 662.078 123.648 662.078 114.326V38.6656H704.777ZM866.792 106.085C866.792 110.081 866.542 114.242 866.043 118.571H769.408C770.073 127.227 772.82 133.886 777.648 138.547C782.642 143.042 788.718 145.289 795.876 145.289C806.53 145.289 813.938 140.794 818.1 131.805H863.546C861.215 140.961 856.97 149.201 850.811 156.526C844.818 163.85 837.244 169.593 828.088 173.755C818.932 177.917 808.694 179.998 797.374 179.998C783.724 179.998 771.572 177.084 760.918 171.258C750.264 165.432 741.94 157.108 735.947 146.288C729.954 135.467 726.958 122.816 726.958 108.333C726.958 93.85 729.871 81.1984 735.698 70.3779C741.691 59.5574 750.014 51.234 760.668 45.4076C771.322 39.5812 783.557 36.668 797.374 36.668C810.858 36.668 822.844 39.4979 833.332 45.1579C843.819 50.8178 851.976 58.8915 857.803 69.3791C863.795 79.8666 866.792 92.1021 866.792 106.085ZM823.094 94.8488C823.094 87.5242 820.597 81.6978 815.603 77.3696C810.609 73.0414 804.366 70.8773 796.875 70.8773C789.717 70.8773 783.641 72.9582 778.647 77.1199C773.819 81.2816 770.823 87.1913 769.657 94.8488H823.094ZM974.217 37.1674C990.531 37.1674 1003.52 42.4944 1013.17 53.1484C1022.99 63.6359 1027.9 78.1187 1027.9 96.5967V178H985.454V102.34C985.454 93.0177 983.04 85.7763 978.212 80.6157C973.385 75.4552 966.892 72.8749 958.735 72.8749C950.578 72.8749 944.086 75.4552 939.258 80.6157C934.431 85.7763 932.017 93.0177 932.017 102.34V178H889.318V38.6656H932.017V57.1436C936.345 50.9843 942.172 46.1567 949.496 42.6608C956.821 38.9985 965.061 37.1674 974.217 37.1674ZM1050.33 90.1045C1050.33 72.7917 1054.08 57.3933 1061.57 43.9094C1069.06 30.2589 1079.47 19.6881 1092.78 12.197C1106.27 4.53947 1121.5 0.710685 1138.48 0.710685C1159.29 0.710685 1177.1 6.20416 1191.92 17.1911C1206.73 28.178 1216.64 43.1602 1221.63 62.1377H1174.69C1171.19 54.8131 1166.2 49.2364 1159.7 45.4076C1153.38 41.5788 1146.14 39.6644 1137.98 39.6644C1124.83 39.6644 1114.17 44.2423 1106.02 53.3981C1097.86 62.5539 1093.78 74.7893 1093.78 90.1045C1093.78 105.42 1097.86 117.655 1106.02 126.811C1114.17 135.967 1124.83 140.545 1137.98 140.545C1146.14 140.545 1153.38 138.63 1159.7 134.801C1166.2 130.973 1171.19 125.396 1174.69 118.071H1221.63C1216.64 137.049 1206.73 152.031 1191.92 163.018C1177.1 173.838 1159.29 179.249 1138.48 179.249C1121.5 179.249 1106.27 175.503 1092.78 168.012C1079.47 160.354 1069.06 149.784 1061.57 136.3C1054.08 122.816 1050.33 107.417 1050.33 90.1045Z" fill="url(#paint0_linear_1_2530)"/>
<defs>
<linearGradient id="paint0_linear_1_2530" x1="41.9246" y1="345.66" x2="1113.71" y2="-272.741" gradientUnits="userSpaceOnUse">
<stop offset="0.0449983" stop-color="#F13AEE"/>
<stop offset="0.677908" stop-color="#2C5AFF"/>
<stop offset="1" stop-color="#64F6FF"/>
</linearGradient>
</defs>
</svg>
