<svg width="34" height="34" viewBox="0 0 34 34" fill="none" xmlns="http://www.w3.org/2000/svg">
<path d="M17 4.25L17 29.75" stroke="#31A0D8" stroke-width="2.04" stroke-miterlimit="10"/>
<path d="M4.25 17L29.75 17" stroke="#31A0D8" stroke-width="2.04" stroke-miterlimit="10"/>
<path d="M16.9963 29.75C21.0199 29.75 24.2816 24.0416 24.2816 17C24.2816 9.95837 21.0199 4.25 16.9963 4.25C12.9727 4.25 9.71094 9.95837 9.71094 17C9.71094 24.0416 12.9727 29.75 16.9963 29.75Z" stroke="#31A0D8" stroke-width="2.04" stroke-miterlimit="10" stroke-linecap="square"/>
<path d="M6.21094 10.2L27.7839 10.2" stroke="#31A0D8" stroke-width="2.04" stroke-miterlimit="10"/>
<path d="M6.21094 23.8L27.7839 23.8" stroke="#31A0D8" stroke-width="2.04" stroke-miterlimit="10"/>
<path d="M17 29.75C24.0416 29.75 29.75 24.0416 29.75 17C29.75 9.95837 24.0416 4.25 17 4.25C9.95837 4.25 4.25 9.95837 4.25 17C4.25 24.0416 9.95837 29.75 17 29.75Z" stroke="#31A0D8" stroke-width="2.04" stroke-miterlimit="10" stroke-linecap="square"/>
</svg>
